# xmcd CD database file generated by OrangeCD 6.0
#
# Track frame offsets:
#	150
#	13162
#	25340
#	42889
#	56149
#	70101
#	85132
#	95852
#	108700
#	118828
#	129931
#	144017
#	157330
#	170317
#	184018
#
# Disc length: 2620 seconds
#
# Revision: 0
# Processed by: cddbd v1.5.2PL0 Copyright (c) Steve Scherf et al.
# Submitted via: OrangeCD 6.0
#
DISCID=d00a3a0f
DTITLE=Big Sandy and His Fly-Rite Boys - Rockin' Big Sandy
DYEAR=1900
DGENRE=Rock-A-Billy
TTITLE0=Backdoor Dan
TTITLE1=Yama Yama Pretty Mama
TTITLE2=Hey Lowdown!
TTITLE3=Let Me In There, Baby
TTITLE4=Honky Tonk Queen
TTITLE5=I Can't Believe I'm Saying This To You
TTITLE6=Juiced
TTITLE7=Feelin' Kinda Lucky
TTITLE8=My Senorita
TTITLE9=The New Ball
TTITLE10=Jumping From 6 To 6
TTITLE11=Let Her Know
TTITLE12=Backdoor Dan (X-Rated Version)
TTITLE13=Pretty Girls Everywhere
TTITLE14=PlayGirl
EXTD=
EXTT0=
EXTT1=
EXTT2=
EXTT3=
EXTT4=
EXTT5=
EXTT6=
EXTT7=
EXTT8=
EXTT9=
EXTT10=
EXTT11=
EXTT12=
EXTT13=
EXTT14=
PLAYORDER=
